# File created by Blade
# Date/Time:  Mon Nov 18 17:26:10 2013
# Frame Rate: 100.000 fps
#------------------------------------------------------
:FULLY-SPECIFIED
:DEGREES
85
root -41.750311 -2.725209 41.402230 7.069231 0.923336 23.501921
Spine 20.387586 -0.972531 0.843869
Spine1 7.433644 -0.244761 2.136724
Spine2 -22.083746 -1.646210 -1.679101
NeckDummy -0.094254 0.319064 0.903798 13.800177 0.510853 -2.157118
Neck 4.454602 -10.705577 42.002761
Head -0.205682 -0.190296 -0.014467 -0.764908 -3.084673 -0.864521
LeftShoulderDummy -0.123428 0.289303 0.901048 13.801843 0.399220 -2.004383
LeftShoulder 7.872897 -7.524337 20.163231
LeftArm 8.864060 43.255346 17.539409
LeftForeArm 46.455331
LeftForeArmRoll 23.423889
LeftHand -36.031966 -26.284380 12.602776
LeftHandThumb1 16.958946 2.927387
LeftHandIndex1 -2.030029 39.705475
LeftHandPinky1 -0.458816 58.916534
RightShoulderDummy -0.106744 0.375282 0.898972 13.773394 -0.472761 2.182466
RightShoulder 10.752987 1.605922 12.565525
RightArm -2.701816 54.852782 17.173671
RightForeArm 101.814635
RightForeArmRoll 19.686120
RightHand -45.915063 -24.854838 13.167222
RightHandThumb1 10.829928 5.937194
RightHandIndex1 0.610694 26.917150
RightHandPinky1 5.188515 49.017858
LeftUpLeg -10.330997 22.623457 -41.136029
LeftLeg 44.549659
LeftFoot -0.420047 -0.950760 -1.152102 -12.084963 22.301312 -5.718699
LeftToeBase -3.503560
RightUpLeg -8.233521 17.397582 -30.708401
RightLeg 49.826205
RightFoot -0.576323 0.753986 0.808656 -16.603536 11.920526 -20.948129
RightToeBase -0.264590
86
root -41.598011 -2.728319 41.338039 7.264523 0.839285 23.267686
Spine 20.329729 -1.039210 0.892962
Spine1 7.404111 -0.294969 2.217238
Spine2 -22.089991 -1.712222 -1.703284
NeckDummy -0.098118 0.319046 0.905559 13.778422 0.525565 -2.178508
Neck 4.392063 -10.715688 42.029252
Head -0.209790 -0.192516 0.000086 -0.949405 -3.053244 -0.941593
LeftShoulderDummy -0.127621 0.289709 0.902847 13.779506 0.411249 -2.015613
LeftShoulder 7.998483 -7.663850 20.341582
LeftArm 8.663798 43.127983 17.211606
LeftForeArm 46.572843
LeftForeArmRoll 22.977035
LeftHand -35.619551 -26.232092 12.735220
LeftHandThumb1 17.026205 2.929648
LeftHandIndex1 -2.093410 39.578765
LeftHandPinky1 -0.564719 58.958337
RightShoulderDummy -0.111409 0.376463 0.900534 13.749711 -0.483740 2.196261
RightShoulder 10.849677 1.622606 12.725562
RightArm -2.978977 54.758779 16.990033
RightForeArm 102.084848
RightForeArmRoll 19.683008
RightHand -45.824928 -24.702587 13.643643
RightHandThumb1 11.063338 5.562370
RightHandIndex1 1.063342 26.570350
RightHandPinky1 5.073022 47.795461
LeftUpLeg -11.162525 22.380990 -40.547613
LeftLeg 42.729732
LeftFoot -0.457936 -0.943257 -1.104968 -11.911627 23.778718 -5.727425
LeftToeBase -3.466855
RightUpLeg -8.379052 17.535887 -30.752649
RightLeg 49.341639
RightFoot -0.601516 0.741191 0.798324 -17.445720 11.932612 -21.046952
RightToeBase 0.690696
87
root -41.432162 -2.740157 41.269608 7.411914 0.808290 23.013658
Spine 20.318460 -1.170451 0.957143
Spine1 7.388949 -0.345457 2.317681
Spine2 -22.107244 -1.771108 -1.749490
NeckDummy -0.100209 0.321060 0.907475 13.774224 0.550166 -2.241910
Neck 4.224338 -10.631540 41.929594
Head -0.217073 -0.196274 0.008976 -1.053680 -3.145871 -0.936401
LeftShoulderDummy -0.130145 0.290964 0.904563 13.774646 0.434485 -2.079296
LeftShoulder 8.091017 -7.636571 20.461093
LeftArm 8.555695 43.158254 16.860984
LeftForeArm 46.756226
LeftForeArmRoll 22.835503
LeftHand -35.667273 -26.222073 12.896950
LeftHandThumb1 16.803617 3.069586
LeftHandIndex1 -1.676508 39.247680
LeftHandPinky1 -0.540344 58.825756
RightShoulderDummy -0.113487 0.380503 0.902596 13.743857 -0.508271 2.266053
RightShoulder 10.900119 1.562651 12.853357
RightArm -3.323942 54.732540 16.719169
RightForeArm 102.347905
RightForeArmRoll 19.701328
RightHand -45.733553 -24.565749 14.097530
RightHandThumb1 11.357651 5.289944
RightHandIndex1 1.473025 26.183272
RightHandPinky1 4.895721 46.461235
LeftUpLeg -12.023269 22.046930 -39.913018
LeftLeg 41.111711
LeftFoot -0.449810 -0.901409 -1.072320 -12.661335 24.651656 -5.036872
LeftToeBase -3.698535
RightUpLeg -8.540386 17.764592 -30.780495
RightLeg 48.876079
RightFoot -0.614270 0.729435 0.804605 -17.845667 11.857051 -20.818453
RightToeBase 0.707480
88
root -41.250275 -2.759623 41.193628 7.536184 0.754929 22.716296
Spine 20.330968 -1.277568 1.015087
Spine1 7.379281 -0.402927 2.412095
Spine2 -22.117896 -1.812933 -1.740119
NeckDummy -0.101941 0.320896 0.909710 13.742949 0.538196 -2.194334
Neck 4.203329 -10.692245 41.846627
Head -0.218707 -0.193118 0.023895 -1.248121 -3.148406 -1.013065
LeftShoulderDummy -0.131675 0.292213 0.907130 13.742462 0.422753 -2.035059
LeftShoulder 8.272780 -7.716173 20.563017
LeftArm 8.521389 43.182593 16.582507
LeftForeArm 46.878612
LeftForeArmRoll 22.439171
LeftHand -35.506264 -26.226448 13.225376
LeftHandThumb1 16.519978 2.947377
LeftHandIndex1 -1.643710 39.224468
LeftHandPinky1 -0.125809 58.654230
RightShoulderDummy -0.114966 0.379858 0.904488 13.711544 -0.496640 2.218990
RightShoulder 10.886848 1.709483 12.989702
RightArm -3.731346 54.807373 16.435854
RightForeArm 102.579380
RightForeArmRoll 19.598351
RightHand -45.683118 -24.487505 14.616598
RightHandThumb1 11.490982 4.965322
RightHandIndex1 2.000032 25.903595
RightHandPinky1 4.816448 45.436611
LeftUpLeg -12.869399 21.722499 -39.284670
LeftLeg 39.763324
LeftFoot -0.389931 -0.806832 -1.067771 -15.078463 24.685426 -3.255721
LeftToeBase -3.705426
RightUpLeg -8.780111 17.969318 -30.817794
RightLeg 48.451246
RightFoot -0.627583 0.736114 0.799757 -18.364877 11.762239 -20.577121
RightToeBase 0.513567
89
root -41.056038 -2.785474 41.112600 7.658183 0.703247 22.356369
Spine 20.353175 -1.417555 1.091915
Spine1 7.374095 -0.455126 2.538760
Spine2 -22.138712 -1.852233 -1.724950
NeckDummy -0.102835 0.321854 0.911628 13.745729 0.518062 -2.150299
Neck 4.143109 -10.757394 41.761789
Head -0.223896 -0.192865 0.036585 -1.401369 -3.182567 -1.049856
LeftShoulderDummy -0.132650 0.294320 0.909431 13.743962 0.403188 -1.997790
LeftShoulder 8.389748 -7.846619 20.657609
LeftArm 8.547855 43.147051 16.260763
LeftForeArm 47.090000
LeftForeArmRoll 22.040301
LeftHand -35.345595 -25.990539 13.372402
LeftHandThumb1 16.412260 2.920701
LeftHandIndex1 -1.425291 38.870528
LeftHandPinky1 -0.089734 58.562065
RightShoulderDummy -0.115545 0.380672 0.905858 13.712716 -0.477654 2.180109
RightShoulder 10.932290 1.832405 13.097869
RightArm -4.002805 54.892665 16.275928
RightForeArm 102.764573
RightForeArmRoll 19.303497
RightHand -45.625678 -24.525749 15.250897
RightHandThumb1 11.660347 4.865446
RightHandIndex1 2.405560 25.732657
RightHandPinky1 4.759657 44.434715
LeftUpLeg -13.525934 21.407338 -38.757381
LeftLeg 38.910954
LeftFoot -0.353868 -0.789529 -1.067090 -17.468838 23.978538 -1.781483
LeftToeBase -3.960141
RightUpLeg -9.080562 18.174015 -30.908827
RightLeg 48.052515
RightFoot -0.629006 0.734536 0.793490 -18.000941 11.595088 -20.342448
RightToeBase 0.242284
90
root -40.852118 -2.819902 41.024543 7.766323 0.590520 21.990482
Spine 20.391683 -1.493341 1.168091
Spine1 7.377425 -0.510241 2.664282
Spine2 -22.146162 -1.911323 -1.739829
NeckDummy -0.106406 0.322363 0.913092 13.720965 0.526834 -2.179769
Neck 4.011455 -10.727054 41.636279
Head -0.226702 -0.188129 0.048703 -1.581037 -3.218185 -1.054912
LeftShoulderDummy -0.136686 0.294849 0.911104 13.719094 0.407906 -2.014675
LeftShoulder 8.489344 -7.816827 20.772859
LeftArm 8.515013 43.170263 16.005862
LeftForeArm 47.307648
LeftForeArmRoll 21.954957
LeftHand -35.372168 -25.989691 13.611265
LeftHandThumb1 15.946906 3.064329
LeftHandIndex1 -1.155845 38.822150
LeftHandPinky1 0.323124 58.484646
RightShoulderDummy -0.118867 0.382025 0.907338 13.687366 -0.486678 2.209219
RightShoulder 10.987812 1.838810 13.164522
RightArm -4.326221 54.983007 16.056159
RightForeArm 102.979994
RightForeArmRoll 19.094564
RightHand -45.607629 -24.622864 15.823835
RightHandThumb1 11.655286 4.842902
RightHandIndex1 2.880683 25.720317
RightHandPinky1 4.656610 43.441278
LeftUpLeg -14.023499 21.143374 -38.328919
LeftLeg 38.458128
LeftFoot -0.314296 -0.786788 -1.030032 -19.819974 23.074689 -0.839835
LeftToeBase -3.773330
RightUpLeg -9.460502 18.308465 -30.995008
RightLeg 47.651227
RightFoot -0.637484 0.724317 0.785940 -18.528130 11.564667 -20.146465
RightToeBase 0.466129
